{
    "asset" : {
        "generator" : "Khronos glTF Blender I/O v1.2.75",
        "version" : "2.0"
    },
    "scene" : 0,
    "scenes" : [
        {
            "name" : "Scene",
            "nodes" : [
                0
            ]
        }
    ],
    "nodes" : [
        {
            "mesh" : 0,
            "name" : "WallFireTrap",
            "rotation" : [
                0,
                0,
                -0.7071067094802856,
                0.7071068286895752
            ]
        }
    ],
    "materials" : [
        {
            "doubleSided" : true,
            "emissiveFactor" : [
                0,
                0,
                0
            ],
            "name" : "stone",
            "pbrMetallicRoughness" : {
                "baseColorTexture" : {
                    "index" : 0,
                    "texCoord" : 0
                },
                "metallicFactor" : 0,
                "roughnessFactor" : 0.5
            }
        },
        {
            "doubleSided" : true,
            "emissiveFactor" : [
                0,
                0,
                0
            ],
            "name" : "iron_2",
            "pbrMetallicRoughness" : {
                "baseColorTexture" : {
                    "index" : 1,
                    "texCoord" : 0
                },
                "metallicFactor" : 0,
                "roughnessFactor" : 0.5
            }
        },
        {
            "doubleSided" : true,
            "emissiveFactor" : [
                0,
                0,
                0
            ],
            "name" : "black",
            "pbrMetallicRoughness" : {
                "baseColorFactor" : [
                    0,
                    0,
                    0,
                    1
                ],
                "metallicFactor" : 0,
                "roughnessFactor" : 0.5
            }
        }
    ],
    "meshes" : [
        {
            "name" : "Circle.006",
            "primitives" : [
                {
                    "attributes" : {
                        "POSITION" : 0,
                        "NORMAL" : 1,
                        "TEXCOORD_0" : 2
                    },
                    "indices" : 3,
                    "material" : 0
                },
                {
                    "attributes" : {
                        "POSITION" : 4,
                        "NORMAL" : 5,
                        "TEXCOORD_0" : 6
                    },
                    "indices" : 7,
                    "material" : 1
                },
                {
                    "attributes" : {
                        "POSITION" : 8,
                        "NORMAL" : 9,
                        "TEXCOORD_0" : 10
                    },
                    "indices" : 11,
                    "material" : 2
                }
            ]
        }
    ],
    "textures" : [
        {
            "sampler" : 0,
            "source" : 0
        },
        {
            "sampler" : 1,
            "source" : 1
        }
    ],
    "images" : [
        {
            "bufferView" : 4,
            "mimeType" : "image/png",
            "name" : "stoneWall"
        },
        {
            "bufferView" : 9,
            "mimeType" : "image/png",
            "name" : "iron2"
        }
    ],
    "accessors" : [
        {
            "bufferView" : 0,
            "componentType" : 5126,
            "count" : 42,
            "max" : [
                0.2445768415927887,
                -0.10504287481307983,
                0.2730914354324341
            ],
            "min" : [
                -0.22843143343925476,
                -0.12472856044769287,
                -0.2730914354324341
            ],
            "type" : "VEC3"
        },
        {
            "bufferView" : 1,
            "componentType" : 5126,
            "count" : 42,
            "type" : "VEC3"
        },
        {
            "bufferView" : 2,
            "componentType" : 5126,
            "count" : 42,
            "type" : "VEC2"
        },
        {
            "bufferView" : 3,
            "componentType" : 5123,
            "count" : 84,
            "type" : "SCALAR"
        },
        {
            "bufferView" : 5,
            "componentType" : 5126,
            "count" : 240,
            "max" : [
                0.20084615051746368,
                0.12472862005233765,
                0.22259555757045746
            ],
            "min" : [
                -0.2445768415927887,
                -0.10612094402313232,
                -0.22259558737277985
            ],
            "type" : "VEC3"
        },
        {
            "bufferView" : 6,
            "componentType" : 5126,
            "count" : 240,
            "type" : "VEC3"
        },
        {
            "bufferView" : 7,
            "componentType" : 5126,
            "count" : 240,
            "type" : "VEC2"
        },
        {
            "bufferView" : 8,
            "componentType" : 5123,
            "count" : 360,
            "type" : "SCALAR"
        },
        {
            "bufferView" : 10,
            "componentType" : 5126,
            "count" : 6,
            "max" : [
                0.14670337736606598,
                -0.08913886547088623,
                0.16007687151432037
            ],
            "min" : [
                -0.13055798411369324,
                -0.08913886547088623,
                -0.16007690131664276
            ],
            "type" : "VEC3"
        },
        {
            "bufferView" : 11,
            "componentType" : 5126,
            "count" : 6,
            "type" : "VEC3"
        },
        {
            "bufferView" : 12,
            "componentType" : 5126,
            "count" : 6,
            "type" : "VEC2"
        },
        {
            "bufferView" : 13,
            "componentType" : 5123,
            "count" : 12,
            "type" : "SCALAR"
        }
    ],
    "bufferViews" : [
        {
            "buffer" : 0,
            "byteLength" : 504,
            "byteOffset" : 0
        },
        {
            "buffer" : 0,
            "byteLength" : 504,
            "byteOffset" : 504
        },
        {
            "buffer" : 0,
            "byteLength" : 336,
            "byteOffset" : 1008
        },
        {
            "buffer" : 0,
            "byteLength" : 168,
            "byteOffset" : 1344
        },
        {
            "buffer" : 0,
            "byteLength" : 5695,
            "byteOffset" : 1512
        },
        {
            "buffer" : 0,
            "byteLength" : 2880,
            "byteOffset" : 7208
        },
        {
            "buffer" : 0,
            "byteLength" : 2880,
            "byteOffset" : 10088
        },
        {
            "buffer" : 0,
            "byteLength" : 1920,
            "byteOffset" : 12968
        },
        {
            "buffer" : 0,
            "byteLength" : 720,
            "byteOffset" : 14888
        },
        {
            "buffer" : 0,
            "byteLength" : 2570,
            "byteOffset" : 15608
        },
        {
            "buffer" : 0,
            "byteLength" : 72,
            "byteOffset" : 18180
        },
        {
            "buffer" : 0,
            "byteLength" : 72,
            "byteOffset" : 18252
        },
        {
            "buffer" : 0,
            "byteLength" : 48,
            "byteOffset" : 18324
        },
        {
            "buffer" : 0,
            "byteLength" : 24,
            "byteOffset" : 18372
        }
    ],
    "samplers" : [
        {
            "magFilter" : 9728,
            "minFilter" : 9984
        },
        {
            "magFilter" : 9728,
            "minFilter" : 9984
        }
    ],
    "buffers" : [
        {
            "byteLength" : 18396,
            "uri" : "data:application/octet-stream;base64,"
        }
    ]
}
