{
    "asset" : {
        "generator" : "Khronos glTF Blender I/O v1.2.75",
        "version" : "2.0"
    },
    "scene" : 0,
    "scenes" : [
        {
            "name" : "Scene",
            "nodes" : [
                0,
                1,
                2,
                3,
                4,
                5,
                6,
                7,
                8,
                9
            ]
        }
    ],
    "nodes" : [
        {
            "mesh" : 0,
            "name" : "Torso",
            "scale" : [
                0.21899192035198212,
                0.3432636260986328,
                0.10145561397075653
            ],
            "translation" : [
                0,
                0.24217858910560608,
                0
            ]
        },
        {
            "mesh" : 1,
            "name" : "BrazoIzq",
            "scale" : [
                0.07291140407323837,
                0.07291140407323837,
                0.07291140407323837
            ],
            "translation" : [
                0,
                0.24217858910560608,
                0
            ]
        },
        {
            "mesh" : 2,
            "name" : "PiernaIzq1",
            "scale" : [
                0.13835780322551727,
                0.13835780322551727,
                0.13835780322551727
            ]
        },
        {
            "mesh" : 3,
            "name" : "PieDer",
            "scale" : [
                0.19661861658096313,
                0.19661861658096313,
                0.19661861658096313
            ]
        },
        {
            "mesh" : 4,
            "name" : "PiernaIzq2",
            "scale" : [
                0.13835780322551727,
                0.13835780322551727,
                0.13835780322551727
            ]
        },
        {
            "mesh" : 5,
            "name" : "Cabeza",
            "rotation" : [
                0,
                0.3090170621871948,
                0,
                0.9510564804077148
            ],
            "scale" : [
                0.14995405077934265,
                0.14995405077934265,
                0.14995405077934265
            ],
            "translation" : [
                0,
                0.6107048988342285,
                0
            ]
        },
        {
            "mesh" : 6,
            "name" : "BrazoDer",
            "scale" : [
                0.07291140407323837,
                0.07291140407323837,
                0.07291140407323837
            ],
            "translation" : [
                0,
                0.24217858910560608,
                0
            ]
        },
        {
            "mesh" : 7,
            "name" : "PiernaDer2",
            "scale" : [
                0.13835780322551727,
                0.13835780322551727,
                0.13835780322551727
            ]
        },
        {
            "mesh" : 8,
            "name" : "PiernaDer3",
            "scale" : [
                0.13835780322551727,
                0.13835780322551727,
                0.13835780322551727
            ]
        },
        {
            "mesh" : 9,
            "name" : "PieIzq",
            "scale" : [
                0.19661861658096313,
                0.19661861658096313,
                0.19661861658096313
            ]
        }
    ],
    "meshes" : [
        {
            "name" : "Cube",
            "primitives" : [
                {
                    "attributes" : {
                        "POSITION" : 0,
                        "NORMAL" : 1,
                        "TEXCOORD_0" : 2
                    },
                    "indices" : 3
                }
            ]
        },
        {
            "name" : "Cube.001",
            "primitives" : [
                {
                    "attributes" : {
                        "POSITION" : 4,
                        "NORMAL" : 5,
                        "TEXCOORD_0" : 6
                    },
                    "indices" : 7
                }
            ]
        },
        {
            "name" : "Cube.003",
            "primitives" : [
                {
                    "attributes" : {
                        "POSITION" : 8,
                        "NORMAL" : 9,
                        "TEXCOORD_0" : 10
                    },
                    "indices" : 11
                }
            ]
        },
        {
            "name" : "Cube.005",
            "primitives" : [
                {
                    "attributes" : {
                        "POSITION" : 12,
                        "NORMAL" : 13,
                        "TEXCOORD_0" : 14
                    },
                    "indices" : 15
                }
            ]
        },
        {
            "name" : "Cube.006",
            "primitives" : [
                {
                    "attributes" : {
                        "POSITION" : 16,
                        "NORMAL" : 17,
                        "TEXCOORD_0" : 18
                    },
                    "indices" : 19
                }
            ]
        },
        {
            "name" : "Circle",
            "primitives" : [
                {
                    "attributes" : {
                        "POSITION" : 20,
                        "NORMAL" : 21,
                        "TEXCOORD_0" : 22
                    },
                    "indices" : 23
                }
            ]
        },
        {
            "name" : "Cube.002",
            "primitives" : [
                {
                    "attributes" : {
                        "POSITION" : 24,
                        "NORMAL" : 25,
                        "TEXCOORD_0" : 26
                    },
                    "indices" : 27
                }
            ]
        },
        {
            "name" : "Cube.004",
            "primitives" : [
                {
                    "attributes" : {
                        "POSITION" : 28,
                        "NORMAL" : 29,
                        "TEXCOORD_0" : 30
                    },
                    "indices" : 31
                }
            ]
        },
        {
            "name" : "Cube.007",
            "primitives" : [
                {
                    "attributes" : {
                        "POSITION" : 32,
                        "NORMAL" : 33,
                        "TEXCOORD_0" : 34
                    },
                    "indices" : 35
                }
            ]
        },
        {
            "name" : "Cube.008",
            "primitives" : [
                {
                    "attributes" : {
                        "POSITION" : 36,
                        "NORMAL" : 37,
                        "TEXCOORD_0" : 38
                    },
                    "indices" : 39
                }
            ]
        }
    ],
    "accessors" : [
        {
            "bufferView" : 0,
            "componentType" : 5126,
            "count" : 88,
            "max" : [
                1,
                1.192845344543457,
                1.0975717306137085
            ],
            "min" : [
                -1,
                -1,
                -1.0305863618850708
            ],
            "type" : "VEC3"
        },
        {
            "bufferView" : 1,
            "componentType" : 5126,
            "count" : 88,
            "type" : "VEC3"
        },
        {
            "bufferView" : 2,
            "componentType" : 5126,
            "count" : 88,
            "type" : "VEC2"
        },
        {
            "bufferView" : 3,
            "componentType" : 5123,
            "count" : 132,
            "type" : "SCALAR"
        },
        {
            "bufferView" : 4,
            "componentType" : 5126,
            "count" : 176,
            "max" : [
                5.317486763000488,
                4.599091529846191,
                12.034078598022461
            ],
            "min" : [
                1.4755828380584717,
                2.875593423843384,
                -0.7347006797790527
            ],
            "type" : "VEC3"
        },
        {
            "bufferView" : 5,
            "componentType" : 5126,
            "count" : 176,
            "type" : "VEC3"
        },
        {
            "bufferView" : 6,
            "componentType" : 5126,
            "count" : 176,
            "type" : "VEC2"
        },
        {
            "bufferView" : 7,
            "componentType" : 5123,
            "count" : 252,
            "type" : "SCALAR"
        },
        {
            "bufferView" : 8,
            "componentType" : 5126,
            "count" : 48,
            "max" : [
                1.407823920249939,
                -0.25484687089920044,
                0.6191930174827576
            ],
            "min" : [
                0.029255740344524384,
                -2.9946818351745605,
                -0.5067389607429504
            ],
            "type" : "VEC3"
        },
        {
            "bufferView" : 9,
            "componentType" : 5126,
            "count" : 48,
            "type" : "VEC3"
        },
        {
            "bufferView" : 10,
            "componentType" : 5126,
            "count" : 48,
            "type" : "VEC2"
        },
        {
            "bufferView" : 11,
            "componentType" : 5123,
            "count" : 66,
            "type" : "SCALAR"
        },
        {
            "bufferView" : 12,
            "componentType" : 5126,
            "count" : 64,
            "max" : [
                0.8891918659210205,
                -3.7455644607543945,
                1.0736006498336792
            ],
            "min" : [
                0.19563809037208557,
                -4.325585842132568,
                -0.19330719113349915
            ],
            "type" : "VEC3"
        },
        {
            "bufferView" : 13,
            "componentType" : 5126,
            "count" : 64,
            "type" : "VEC3"
        },
        {
            "bufferView" : 14,
            "componentType" : 5126,
            "count" : 64,
            "type" : "VEC2"
        },
        {
            "bufferView" : 15,
            "componentType" : 5123,
            "count" : 90,
            "type" : "SCALAR"
        },
        {
            "bufferView" : 16,
            "componentType" : 5126,
            "count" : 48,
            "max" : [
                1.4142241477966309,
                -2.4267709255218506,
                0.6247956156730652
            ],
            "min" : [
                0.11520349979400635,
                -6.106490612030029,
                -0.5123415589332581
            ],
            "type" : "VEC3"
        },
        {
            "bufferView" : 17,
            "componentType" : 5126,
            "count" : 48,
            "type" : "VEC3"
        },
        {
            "bufferView" : 18,
            "componentType" : 5126,
            "count" : 48,
            "type" : "VEC2"
        },
        {
            "bufferView" : 19,
            "componentType" : 5123,
            "count" : 66,
            "type" : "SCALAR"
        },
        {
            "bufferView" : 20,
            "componentType" : 5126,
            "count" : 152,
            "max" : [
                0.8679088950157166,
                1.9343533515930176,
                0.8868905305862427
            ],
            "min" : [
                -0.8165208697319031,
                1.1920928955078125e-07,
                -0.9395896792411804
            ],
            "type" : "VEC3"
        },
        {
            "bufferView" : 21,
            "componentType" : 5126,
            "count" : 152,
            "type" : "VEC3"
        },
        {
            "bufferView" : 22,
            "componentType" : 5126,
            "count" : 152,
            "type" : "VEC2"
        },
        {
            "bufferView" : 23,
            "componentType" : 5123,
            "count" : 246,
            "type" : "SCALAR"
        },
        {
            "bufferView" : 24,
            "componentType" : 5126,
            "count" : 176,
            "max" : [
                -1.4755828380584717,
                4.599091529846191,
                12.034078598022461
            ],
            "min" : [
                -5.317486763000488,
                2.875593423843384,
                -0.7347006797790527
            ],
            "type" : "VEC3"
        },
        {
            "bufferView" : 25,
            "componentType" : 5126,
            "count" : 176,
            "type" : "VEC3"
        },
        {
            "bufferView" : 26,
            "componentType" : 5126,
            "count" : 176,
            "type" : "VEC2"
        },
        {
            "bufferView" : 27,
            "componentType" : 5123,
            "count" : 252,
            "type" : "SCALAR"
        },
        {
            "bufferView" : 28,
            "componentType" : 5126,
            "count" : 48,
            "max" : [
                -0.029255740344524384,
                -0.25484687089920044,
                0.6191930174827576
            ],
            "min" : [
                -1.407823920249939,
                -2.9946818351745605,
                -0.5067389607429504
            ],
            "type" : "VEC3"
        },
        {
            "bufferView" : 29,
            "componentType" : 5126,
            "count" : 48,
            "type" : "VEC3"
        },
        {
            "bufferView" : 30,
            "componentType" : 5126,
            "count" : 48,
            "type" : "VEC2"
        },
        {
            "bufferView" : 31,
            "componentType" : 5123,
            "count" : 66,
            "type" : "SCALAR"
        },
        {
            "bufferView" : 32,
            "componentType" : 5126,
            "count" : 48,
            "max" : [
                -0.11520349979400635,
                -2.4267709255218506,
                0.6247956156730652
            ],
            "min" : [
                -1.4142241477966309,
                -6.106490612030029,
                -0.5123415589332581
            ],
            "type" : "VEC3"
        },
        {
            "bufferView" : 33,
            "componentType" : 5126,
            "count" : 48,
            "type" : "VEC3"
        },
        {
            "bufferView" : 34,
            "componentType" : 5126,
            "count" : 48,
            "type" : "VEC2"
        },
        {
            "bufferView" : 35,
            "componentType" : 5123,
            "count" : 66,
            "type" : "SCALAR"
        },
        {
            "bufferView" : 36,
            "componentType" : 5126,
            "count" : 64,
            "max" : [
                -0.19563809037208557,
                -3.7455644607543945,
                1.0736006498336792
            ],
            "min" : [
                -0.8891918659210205,
                -4.325585842132568,
                -0.19330719113349915
            ],
            "type" : "VEC3"
        },
        {
            "bufferView" : 37,
            "componentType" : 5126,
            "count" : 64,
            "type" : "VEC3"
        },
        {
            "bufferView" : 38,
            "componentType" : 5126,
            "count" : 64,
            "type" : "VEC2"
        },
        {
            "bufferView" : 39,
            "componentType" : 5123,
            "count" : 90,
            "type" : "SCALAR"
        }
    ],
    "bufferViews" : [
        {
            "buffer" : 0,
            "byteLength" : 1056,
            "byteOffset" : 0
        },
        {
            "buffer" : 0,
            "byteLength" : 1056,
            "byteOffset" : 1056
        },
        {
            "buffer" : 0,
            "byteLength" : 704,
            "byteOffset" : 2112
        },
        {
            "buffer" : 0,
            "byteLength" : 264,
            "byteOffset" : 2816
        },
        {
            "buffer" : 0,
            "byteLength" : 2112,
            "byteOffset" : 3080
        },
        {
            "buffer" : 0,
            "byteLength" : 2112,
            "byteOffset" : 5192
        },
        {
            "buffer" : 0,
            "byteLength" : 1408,
            "byteOffset" : 7304
        },
        {
            "buffer" : 0,
            "byteLength" : 504,
            "byteOffset" : 8712
        },
        {
            "buffer" : 0,
            "byteLength" : 576,
            "byteOffset" : 9216
        },
        {
            "buffer" : 0,
            "byteLength" : 576,
            "byteOffset" : 9792
        },
        {
            "buffer" : 0,
            "byteLength" : 384,
            "byteOffset" : 10368
        },
        {
            "buffer" : 0,
            "byteLength" : 132,
            "byteOffset" : 10752
        },
        {
            "buffer" : 0,
            "byteLength" : 768,
            "byteOffset" : 10884
        },
        {
            "buffer" : 0,
            "byteLength" : 768,
            "byteOffset" : 11652
        },
        {
            "buffer" : 0,
            "byteLength" : 512,
            "byteOffset" : 12420
        },
        {
            "buffer" : 0,
            "byteLength" : 180,
            "byteOffset" : 12932
        },
        {
            "buffer" : 0,
            "byteLength" : 576,
            "byteOffset" : 13112
        },
        {
            "buffer" : 0,
            "byteLength" : 576,
            "byteOffset" : 13688
        },
        {
            "buffer" : 0,
            "byteLength" : 384,
            "byteOffset" : 14264
        },
        {
            "buffer" : 0,
            "byteLength" : 132,
            "byteOffset" : 14648
        },
        {
            "buffer" : 0,
            "byteLength" : 1824,
            "byteOffset" : 14780
        },
        {
            "buffer" : 0,
            "byteLength" : 1824,
            "byteOffset" : 16604
        },
        {
            "buffer" : 0,
            "byteLength" : 1216,
            "byteOffset" : 18428
        },
        {
            "buffer" : 0,
            "byteLength" : 492,
            "byteOffset" : 19644
        },
        {
            "buffer" : 0,
            "byteLength" : 2112,
            "byteOffset" : 20136
        },
        {
            "buffer" : 0,
            "byteLength" : 2112,
            "byteOffset" : 22248
        },
        {
            "buffer" : 0,
            "byteLength" : 1408,
            "byteOffset" : 24360
        },
        {
            "buffer" : 0,
            "byteLength" : 504,
            "byteOffset" : 25768
        },
        {
            "buffer" : 0,
            "byteLength" : 576,
            "byteOffset" : 26272
        },
        {
            "buffer" : 0,
            "byteLength" : 576,
            "byteOffset" : 26848
        },
        {
            "buffer" : 0,
            "byteLength" : 384,
            "byteOffset" : 27424
        },
        {
            "buffer" : 0,
            "byteLength" : 132,
            "byteOffset" : 27808
        },
        {
            "buffer" : 0,
            "byteLength" : 576,
            "byteOffset" : 27940
        },
        {
            "buffer" : 0,
            "byteLength" : 576,
            "byteOffset" : 28516
        },
        {
            "buffer" : 0,
            "byteLength" : 384,
            "byteOffset" : 29092
        },
        {
            "buffer" : 0,
            "byteLength" : 132,
            "byteOffset" : 29476
        },
        {
            "buffer" : 0,
            "byteLength" : 768,
            "byteOffset" : 29608
        },
        {
            "buffer" : 0,
            "byteLength" : 768,
            "byteOffset" : 30376
        },
        {
            "buffer" : 0,
            "byteLength" : 512,
            "byteOffset" : 31144
        },
        {
            "buffer" : 0,
            "byteLength" : 180,
            "byteOffset" : 31656
        }
    ],
    "buffers" : [
        {
            "byteLength" : 31836,
            "uri" : "data:application/octet-stream;base64,"
        }
    ]
}
