{
    "asset" : {
        "generator" : "Khronos glTF Blender I/O v1.2.75",
        "version" : "2.0"
    },
    "scene" : 0,
    "scenes" : [
        {
            "name" : "Scene",
            "nodes" : [
                0,
                1,
                2,
                3
            ]
        }
    ],
    "nodes" : [
        {
            "mesh" : 0,
            "name" : "Grip",
            "scale" : [
                0.05395771563053131,
                0.2844027280807495,
                0.05395771563053131
            ]
        },
        {
            "mesh" : 1,
            "name" : "Blade",
            "scale" : [
                0.05395771563053131,
                0.2844027280807495,
                0.05395771563053131
            ]
        },
        {
            "mesh" : 2,
            "name" : "CrossGuard",
            "scale" : [
                0.05395771563053131,
                0.2844027280807495,
                0.05395771563053131
            ]
        },
        {
            "mesh" : 3,
            "name" : "Pommel",
            "scale" : [
                0.05395771563053131,
                0.2844027280807495,
                0.05395771563053131
            ]
        }
    ],
    "materials" : [
        {
            "doubleSided" : true,
            "name" : "Material",
            "pbrMetallicRoughness" : {}
        }
    ],
    "meshes" : [
        {
            "name" : "Cylinder.001",
            "primitives" : [
                {
                    "attributes" : {
                        "POSITION" : 0,
                        "NORMAL" : 1,
                        "TEXCOORD_0" : 2
                    },
                    "indices" : 3
                }
            ]
        },
        {
            "name" : "Cylinder.002",
            "primitives" : [
                {
                    "attributes" : {
                        "POSITION" : 4,
                        "NORMAL" : 5,
                        "TEXCOORD_0" : 6
                    },
                    "indices" : 7,
                    "material" : 0
                }
            ]
        },
        {
            "name" : "Cylinder.003",
            "primitives" : [
                {
                    "attributes" : {
                        "POSITION" : 8,
                        "NORMAL" : 9,
                        "TEXCOORD_0" : 10
                    },
                    "indices" : 11
                }
            ]
        },
        {
            "name" : "Cylinder.004",
            "primitives" : [
                {
                    "attributes" : {
                        "POSITION" : 12,
                        "NORMAL" : 13,
                        "TEXCOORD_0" : 14
                    },
                    "indices" : 15
                }
            ]
        }
    ],
    "accessors" : [
        {
            "bufferView" : 0,
            "componentType" : 5126,
            "count" : 25,
            "max" : [
                0.30274343490600586,
                0.26552140712738037,
                0.8410120606422424
            ],
            "min" : [
                -8.988779067993164,
                -0.2664776146411896,
                -1.0353864431381226
            ],
            "type" : "VEC3"
        },
        {
            "bufferView" : 1,
            "componentType" : 5126,
            "count" : 25,
            "type" : "VEC3"
        },
        {
            "bufferView" : 2,
            "componentType" : 5126,
            "count" : 25,
            "type" : "VEC2"
        },
        {
            "bufferView" : 3,
            "componentType" : 5123,
            "count" : 39,
            "type" : "SCALAR"
        },
        {
            "bufferView" : 4,
            "componentType" : 5126,
            "count" : 48,
            "max" : [
                32.34172439575195,
                0.44582223892211914,
                0.45442822575569153
            ],
            "min" : [
                0.25267648696899414,
                -0.44582223892211914,
                -0.45442816615104675
            ],
            "type" : "VEC3"
        },
        {
            "bufferView" : 5,
            "componentType" : 5126,
            "count" : 48,
            "type" : "VEC3"
        },
        {
            "bufferView" : 6,
            "componentType" : 5126,
            "count" : 48,
            "type" : "VEC2"
        },
        {
            "bufferView" : 7,
            "componentType" : 5123,
            "count" : 66,
            "type" : "SCALAR"
        },
        {
            "bufferView" : 8,
            "componentType" : 5126,
            "count" : 170,
            "max" : [
                3.5771234035491943,
                1.4726046323776245,
                1.1953073740005493
            ],
            "min" : [
                -0.9510564804077148,
                -1.4726046323776245,
                -1.4774808883666992
            ],
            "type" : "VEC3"
        },
        {
            "bufferView" : 9,
            "componentType" : 5126,
            "count" : 170,
            "type" : "VEC3"
        },
        {
            "bufferView" : 10,
            "componentType" : 5126,
            "count" : 170,
            "type" : "VEC2"
        },
        {
            "bufferView" : 11,
            "componentType" : 5123,
            "count" : 258,
            "type" : "SCALAR"
        },
        {
            "bufferView" : 12,
            "componentType" : 5126,
            "count" : 65,
            "max" : [
                -8.988779067993164,
                0.25284847617149353,
                1.134541630744934
            ],
            "min" : [
                -11.064157485961914,
                -0.2512049376964569,
                -1.3967561721801758
            ],
            "type" : "VEC3"
        },
        {
            "bufferView" : 13,
            "componentType" : 5126,
            "count" : 65,
            "type" : "VEC3"
        },
        {
            "bufferView" : 14,
            "componentType" : 5126,
            "count" : 65,
            "type" : "VEC2"
        },
        {
            "bufferView" : 15,
            "componentType" : 5123,
            "count" : 99,
            "type" : "SCALAR"
        }
    ],
    "bufferViews" : [
        {
            "buffer" : 0,
            "byteLength" : 300,
            "byteOffset" : 0
        },
        {
            "buffer" : 0,
            "byteLength" : 300,
            "byteOffset" : 300
        },
        {
            "buffer" : 0,
            "byteLength" : 200,
            "byteOffset" : 600
        },
        {
            "buffer" : 0,
            "byteLength" : 78,
            "byteOffset" : 800
        },
        {
            "buffer" : 0,
            "byteLength" : 576,
            "byteOffset" : 880
        },
        {
            "buffer" : 0,
            "byteLength" : 576,
            "byteOffset" : 1456
        },
        {
            "buffer" : 0,
            "byteLength" : 384,
            "byteOffset" : 2032
        },
        {
            "buffer" : 0,
            "byteLength" : 132,
            "byteOffset" : 2416
        },
        {
            "buffer" : 0,
            "byteLength" : 2040,
            "byteOffset" : 2548
        },
        {
            "buffer" : 0,
            "byteLength" : 2040,
            "byteOffset" : 4588
        },
        {
            "buffer" : 0,
            "byteLength" : 1360,
            "byteOffset" : 6628
        },
        {
            "buffer" : 0,
            "byteLength" : 516,
            "byteOffset" : 7988
        },
        {
            "buffer" : 0,
            "byteLength" : 780,
            "byteOffset" : 8504
        },
        {
            "buffer" : 0,
            "byteLength" : 780,
            "byteOffset" : 9284
        },
        {
            "buffer" : 0,
            "byteLength" : 520,
            "byteOffset" : 10064
        },
        {
            "buffer" : 0,
            "byteLength" : 198,
            "byteOffset" : 10584
        }
    ],
    "buffers" : [
        {
            "byteLength" : 10784,
            "uri" : "data:application/octet-stream;base64,"
        }
    ]
}
