{
    "asset" : {
        "generator" : "Khronos glTF Blender I/O v1.2.75",
        "version" : "2.0"
    },
    "scene" : 0,
    "scenes" : [
        {
            "name" : "Scene",
            "nodes" : [
                0
            ]
        }
    ],
    "nodes" : [
        {
            "mesh" : 0,
            "name" : "Library"
        }
    ],
    "materials" : [
        {
            "doubleSided" : true,
            "emissiveFactor" : [
                0,
                0,
                0
            ],
            "name" : "wood_4",
            "pbrMetallicRoughness" : {
                "baseColorTexture" : {
                    "index" : 0,
                    "texCoord" : 0
                },
                "metallicFactor" : 0,
                "roughnessFactor" : 0.5
            }
        },
        {
            "doubleSided" : true,
            "emissiveFactor" : [
                0,
                0,
                0
            ],
            "name" : "book_1",
            "pbrMetallicRoughness" : {
                "baseColorTexture" : {
                    "index" : 1,
                    "texCoord" : 0
                },
                "metallicFactor" : 0,
                "roughnessFactor" : 0.5
            }
        },
        {
            "doubleSided" : true,
            "emissiveFactor" : [
                0,
                0,
                0
            ],
            "name" : "candle",
            "pbrMetallicRoughness" : {
                "baseColorTexture" : {
                    "index" : 2,
                    "texCoord" : 0
                },
                "metallicFactor" : 0,
                "roughnessFactor" : 0.5
            }
        },
        {
            "doubleSided" : true,
            "emissiveFactor" : [
                0,
                0,
                0
            ],
            "name" : "book_3",
            "pbrMetallicRoughness" : {
                "baseColorTexture" : {
                    "index" : 3,
                    "texCoord" : 0
                },
                "metallicFactor" : 0,
                "roughnessFactor" : 0.5
            }
        },
        {
            "doubleSided" : true,
            "emissiveFactor" : [
                0,
                0,
                0
            ],
            "name" : "book_2",
            "pbrMetallicRoughness" : {
                "baseColorTexture" : {
                    "index" : 4,
                    "texCoord" : 0
                },
                "metallicFactor" : 0,
                "roughnessFactor" : 0.5
            }
        },
        {
            "doubleSided" : true,
            "emissiveFactor" : [
                0,
                0,
                0
            ],
            "name" : "book_4",
            "pbrMetallicRoughness" : {
                "baseColorTexture" : {
                    "index" : 5,
                    "texCoord" : 0
                },
                "metallicFactor" : 0,
                "roughnessFactor" : 0.5
            }
        },
        {
            "doubleSided" : true,
            "emissiveFactor" : [
                0,
                0,
                0
            ],
            "name" : "iron_2",
            "pbrMetallicRoughness" : {
                "baseColorTexture" : {
                    "index" : 6,
                    "texCoord" : 0
                },
                "metallicFactor" : 0,
                "roughnessFactor" : 0.5
            }
        }
    ],
    "meshes" : [
        {
            "name" : "Cube.030",
            "primitives" : [
                {
                    "attributes" : {
                        "POSITION" : 0,
                        "NORMAL" : 1,
                        "TEXCOORD_0" : 2
                    },
                    "indices" : 3,
                    "material" : 0
                },
                {
                    "attributes" : {
                        "POSITION" : 4,
                        "NORMAL" : 5,
                        "TEXCOORD_0" : 6
                    },
                    "indices" : 7,
                    "material" : 1
                },
                {
                    "attributes" : {
                        "POSITION" : 8,
                        "NORMAL" : 9,
                        "TEXCOORD_0" : 10
                    },
                    "indices" : 11,
                    "material" : 2
                },
                {
                    "attributes" : {
                        "POSITION" : 12,
                        "NORMAL" : 13,
                        "TEXCOORD_0" : 14
                    },
                    "indices" : 15,
                    "material" : 3
                },
                {
                    "attributes" : {
                        "POSITION" : 16,
                        "NORMAL" : 17,
                        "TEXCOORD_0" : 18
                    },
                    "indices" : 19,
                    "material" : 4
                },
                {
                    "attributes" : {
                        "POSITION" : 20,
                        "NORMAL" : 21,
                        "TEXCOORD_0" : 22
                    },
                    "indices" : 23,
                    "material" : 5
                },
                {
                    "attributes" : {
                        "POSITION" : 24,
                        "NORMAL" : 25,
                        "TEXCOORD_0" : 26
                    },
                    "indices" : 27,
                    "material" : 6
                }
            ]
        }
    ],
    "textures" : [
        {
            "sampler" : 0,
            "source" : 0
        },
        {
            "sampler" : 1,
            "source" : 1
        },
        {
            "sampler" : 2,
            "source" : 2
        },
        {
            "sampler" : 3,
            "source" : 3
        },
        {
            "sampler" : 4,
            "source" : 4
        },
        {
            "sampler" : 5,
            "source" : 5
        },
        {
            "sampler" : 6,
            "source" : 6
        }
    ],
    "images" : [
        {
            "bufferView" : 4,
            "mimeType" : "image/png",
            "name" : "wood4"
        },
        {
            "bufferView" : 9,
            "mimeType" : "image/png",
            "name" : "book1"
        },
        {
            "bufferView" : 14,
            "mimeType" : "image/png",
            "name" : "candle"
        },
        {
            "bufferView" : 19,
            "mimeType" : "image/png",
            "name" : "book3"
        },
        {
            "bufferView" : 24,
            "mimeType" : "image/png",
            "name" : "book2"
        },
        {
            "bufferView" : 29,
            "mimeType" : "image/png",
            "name" : "book4"
        },
        {
            "bufferView" : 34,
            "mimeType" : "image/png",
            "name" : "iron2"
        }
    ],
    "accessors" : [
        {
            "bufferView" : 0,
            "componentType" : 5126,
            "count" : 976,
            "max" : [
                0.6000000238418579,
                1.1373283863067627,
                0.12663689255714417
            ],
            "min" : [
                -0.6000000238418579,
                -1.1373283863067627,
                -0.16768419742584229
            ],
            "type" : "VEC3"
        },
        {
            "bufferView" : 1,
            "componentType" : 5126,
            "count" : 976,
            "type" : "VEC3"
        },
        {
            "bufferView" : 2,
            "componentType" : 5126,
            "count" : 976,
            "type" : "VEC2"
        },
        {
            "bufferView" : 3,
            "componentType" : 5123,
            "count" : 1554,
            "type" : "SCALAR"
        },
        {
            "bufferView" : 5,
            "componentType" : 5126,
            "count" : 972,
            "max" : [
                0.5202715396881104,
                0.8924543261528015,
                0.09964883327484131
            ],
            "min" : [
                -0.5082000494003296,
                -0.7148361802101135,
                -0.14185193181037903
            ],
            "type" : "VEC3"
        },
        {
            "bufferView" : 6,
            "componentType" : 5126,
            "count" : 972,
            "type" : "VEC3"
        },
        {
            "bufferView" : 7,
            "componentType" : 5126,
            "count" : 972,
            "type" : "VEC2"
        },
        {
            "bufferView" : 8,
            "componentType" : 5123,
            "count" : 1458,
            "type" : "SCALAR"
        },
        {
            "bufferView" : 10,
            "componentType" : 5126,
            "count" : 336,
            "max" : [
                0.5112068057060242,
                0.9029894471168518,
                0.08503870666027069
            ],
            "min" : [
                -0.48964768648147583,
                -0.7048055529594421,
                -0.1368555873632431
            ],
            "type" : "VEC3"
        },
        {
            "bufferView" : 11,
            "componentType" : 5126,
            "count" : 336,
            "type" : "VEC3"
        },
        {
            "bufferView" : 12,
            "componentType" : 5126,
            "count" : 336,
            "type" : "VEC2"
        },
        {
            "bufferView" : 13,
            "componentType" : 5123,
            "count" : 504,
            "type" : "SCALAR"
        },
        {
            "bufferView" : 15,
            "componentType" : 5126,
            "count" : 648,
            "max" : [
                0.2924434542655945,
                0.9120542407035828,
                0.08509156107902527
            ],
            "min" : [
                -0.36354297399520874,
                -0.71258944272995,
                -0.14665287733078003
            ],
            "type" : "VEC3"
        },
        {
            "bufferView" : 16,
            "componentType" : 5126,
            "count" : 648,
            "type" : "VEC3"
        },
        {
            "bufferView" : 17,
            "componentType" : 5126,
            "count" : 648,
            "type" : "VEC2"
        },
        {
            "bufferView" : 18,
            "componentType" : 5123,
            "count" : 972,
            "type" : "SCALAR"
        },
        {
            "bufferView" : 20,
            "componentType" : 5126,
            "count" : 624,
            "max" : [
                0.2042638510465622,
                0.9106993079185486,
                0.08507159352302551
            ],
            "min" : [
                -0.5070106387138367,
                -0.7097185254096985,
                -0.14663299918174744
            ],
            "type" : "VEC3"
        },
        {
            "bufferView" : 21,
            "componentType" : 5126,
            "count" : 624,
            "type" : "VEC3"
        },
        {
            "bufferView" : 22,
            "componentType" : 5126,
            "count" : 624,
            "type" : "VEC2"
        },
        {
            "bufferView" : 23,
            "componentType" : 5123,
            "count" : 972,
            "type" : "SCALAR"
        },
        {
            "bufferView" : 25,
            "componentType" : 5126,
            "count" : 744,
            "max" : [
                0.5129359364509583,
                0.9098864197731018,
                0.08507159352302551
            ],
            "min" : [
                -0.5096860527992249,
                -0.7145687937736511,
                -0.14663299918174744
            ],
            "type" : "VEC3"
        },
        {
            "bufferView" : 26,
            "componentType" : 5126,
            "count" : 744,
            "type" : "VEC3"
        },
        {
            "bufferView" : 27,
            "componentType" : 5126,
            "count" : 744,
            "type" : "VEC2"
        },
        {
            "bufferView" : 28,
            "componentType" : 5123,
            "count" : 1134,
            "type" : "SCALAR"
        },
        {
            "bufferView" : 30,
            "componentType" : 5126,
            "count" : 20,
            "max" : [
                0.35045644640922546,
                -0.874225914478302,
                0.13724413514137268
            ],
            "min" : [
                -0.3476141691207886,
                -0.8985421061515808,
                0.12663689255714417
            ],
            "type" : "VEC3"
        },
        {
            "bufferView" : 31,
            "componentType" : 5126,
            "count" : 20,
            "type" : "VEC3"
        },
        {
            "bufferView" : 32,
            "componentType" : 5126,
            "count" : 20,
            "type" : "VEC2"
        },
        {
            "bufferView" : 33,
            "componentType" : 5123,
            "count" : 30,
            "type" : "SCALAR"
        }
    ],
    "bufferViews" : [
        {
            "buffer" : 0,
            "byteLength" : 11712,
            "byteOffset" : 0
        },
        {
            "buffer" : 0,
            "byteLength" : 11712,
            "byteOffset" : 11712
        },
        {
            "buffer" : 0,
            "byteLength" : 7808,
            "byteOffset" : 23424
        },
        {
            "buffer" : 0,
            "byteLength" : 3108,
            "byteOffset" : 31232
        },
        {
            "buffer" : 0,
            "byteLength" : 8359,
            "byteOffset" : 34340
        },
        {
            "buffer" : 0,
            "byteLength" : 11664,
            "byteOffset" : 42700
        },
        {
            "buffer" : 0,
            "byteLength" : 11664,
            "byteOffset" : 54364
        },
        {
            "buffer" : 0,
            "byteLength" : 7776,
            "byteOffset" : 66028
        },
        {
            "buffer" : 0,
            "byteLength" : 2916,
            "byteOffset" : 73804
        },
        {
            "buffer" : 0,
            "byteLength" : 3616,
            "byteOffset" : 76720
        },
        {
            "buffer" : 0,
            "byteLength" : 4032,
            "byteOffset" : 80336
        },
        {
            "buffer" : 0,
            "byteLength" : 4032,
            "byteOffset" : 84368
        },
        {
            "buffer" : 0,
            "byteLength" : 2688,
            "byteOffset" : 88400
        },
        {
            "buffer" : 0,
            "byteLength" : 1008,
            "byteOffset" : 91088
        },
        {
            "buffer" : 0,
            "byteLength" : 3666,
            "byteOffset" : 92096
        },
        {
            "buffer" : 0,
            "byteLength" : 7776,
            "byteOffset" : 95764
        },
        {
            "buffer" : 0,
            "byteLength" : 7776,
            "byteOffset" : 103540
        },
        {
            "buffer" : 0,
            "byteLength" : 5184,
            "byteOffset" : 111316
        },
        {
            "buffer" : 0,
            "byteLength" : 1944,
            "byteOffset" : 116500
        },
        {
            "buffer" : 0,
            "byteLength" : 3665,
            "byteOffset" : 118444
        },
        {
            "buffer" : 0,
            "byteLength" : 7488,
            "byteOffset" : 122112
        },
        {
            "buffer" : 0,
            "byteLength" : 7488,
            "byteOffset" : 129600
        },
        {
            "buffer" : 0,
            "byteLength" : 4992,
            "byteOffset" : 137088
        },
        {
            "buffer" : 0,
            "byteLength" : 1944,
            "byteOffset" : 142080
        },
        {
            "buffer" : 0,
            "byteLength" : 3675,
            "byteOffset" : 144024
        },
        {
            "buffer" : 0,
            "byteLength" : 8928,
            "byteOffset" : 147700
        },
        {
            "buffer" : 0,
            "byteLength" : 8928,
            "byteOffset" : 156628
        },
        {
            "buffer" : 0,
            "byteLength" : 5952,
            "byteOffset" : 165556
        },
        {
            "buffer" : 0,
            "byteLength" : 2268,
            "byteOffset" : 171508
        },
        {
            "buffer" : 0,
            "byteLength" : 3429,
            "byteOffset" : 173776
        },
        {
            "buffer" : 0,
            "byteLength" : 240,
            "byteOffset" : 177208
        },
        {
            "buffer" : 0,
            "byteLength" : 240,
            "byteOffset" : 177448
        },
        {
            "buffer" : 0,
            "byteLength" : 160,
            "byteOffset" : 177688
        },
        {
            "buffer" : 0,
            "byteLength" : 60,
            "byteOffset" : 177848
        },
        {
            "buffer" : 0,
            "byteLength" : 2570,
            "byteOffset" : 177908
        }
    ],
    "samplers" : [
        {
            "magFilter" : 9728,
            "minFilter" : 9984
        },
        {
            "magFilter" : 9728,
            "minFilter" : 9984
        },
        {
            "magFilter" : 9728,
            "minFilter" : 9984
        },
        {
            "magFilter" : 9728,
            "minFilter" : 9984
        },
        {
            "magFilter" : 9728,
            "minFilter" : 9984
        },
        {
            "magFilter" : 9728,
            "minFilter" : 9984
        },
        {
            "magFilter" : 9728,
            "minFilter" : 9984
        }
    ],
    "buffers" : [
        {
            "byteLength" : 180480,
            "uri" : "data:application/octet-stream;base64,"
        }
    ]
}
